<mxfile host="Electron" modified="2023-05-06T09:52:22.597Z" agent="Mozilla/5.0 (Windows NT 10.0; Win64; x64) AppleWebKit/537.36 (KHTML, like Gecko) draw.io/21.2.8 Chrome/112.0.5615.165 Electron/24.2.0 Safari/537.36" etag="gFcqTs60f0z3fewgSngV" version="21.2.8" type="device">
  <diagram name="Page-1" id="GrsS7iKDy1p1Y6Y5ErpG">
    <mxGraphModel dx="1909" dy="1129" grid="0" gridSize="10" guides="1" tooltips="1" connect="1" arrows="1" fold="1" page="1" pageScale="1" pageWidth="850" pageHeight="1100" math="0" shadow="0">
      <root>
        <mxCell id="0" />
        <mxCell id="1" parent="0" />
        <mxCell id="declpNx9WabdXN2sbOY6-1" value="" style="rounded=0;whiteSpace=wrap;html=1;imageWidth=24;resizeWidth=0;fixedWidth=1;rotation=0;movable=0;resizable=0;rotatable=0;deletable=0;editable=0;locked=1;connectable=0;" parent="1" vertex="1">
          <mxGeometry x="100" y="193" width="1520" height="715" as="geometry" />
        </mxCell>
        <mxCell id="D6sIlu3n6dJU7XomKpgG-1" value="" style="verticalLabelPosition=bottom;shadow=0;dashed=0;align=center;html=1;verticalAlign=top;strokeWidth=1;shape=mxgraph.mockup.graphics.simpleIcon;strokeColor=#999999;rounded=0;labelBackgroundColor=none;fontFamily=Verdana;fontSize=14;fontColor=#000000;comic=1;" vertex="1" parent="1">
          <mxGeometry x="260.97" y="380" width="262.06" height="190" as="geometry" />
        </mxCell>
        <mxCell id="D6sIlu3n6dJU7XomKpgG-2" value="" style="rounded=0;whiteSpace=wrap;html=1;movable=0;resizable=0;rotatable=0;deletable=0;editable=0;locked=1;connectable=0;" vertex="1" parent="1">
          <mxGeometry x="590" y="240" width="520" height="40" as="geometry" />
        </mxCell>
        <mxCell id="D6sIlu3n6dJU7XomKpgG-6" value="" style="group;movable=0;resizable=0;rotatable=0;deletable=0;editable=0;locked=1;connectable=0;" vertex="1" connectable="0" parent="1">
          <mxGeometry x="501.5" y="305" width="717" height="60" as="geometry" />
        </mxCell>
        <mxCell id="D6sIlu3n6dJU7XomKpgG-5" value="" style="group" vertex="1" connectable="0" parent="D6sIlu3n6dJU7XomKpgG-6">
          <mxGeometry width="360" height="60" as="geometry" />
        </mxCell>
        <mxCell id="D6sIlu3n6dJU7XomKpgG-3" value="" style="rounded=0;whiteSpace=wrap;html=1;" vertex="1" parent="D6sIlu3n6dJU7XomKpgG-5">
          <mxGeometry width="360" height="30" as="geometry" />
        </mxCell>
        <mxCell id="D6sIlu3n6dJU7XomKpgG-4" value="" style="rounded=0;whiteSpace=wrap;html=1;" vertex="1" parent="D6sIlu3n6dJU7XomKpgG-6">
          <mxGeometry x="357" width="360" height="30" as="geometry" />
        </mxCell>
        <mxCell id="D6sIlu3n6dJU7XomKpgG-8" value="" style="verticalLabelPosition=bottom;shadow=0;dashed=0;align=center;html=1;verticalAlign=top;strokeWidth=1;shape=mxgraph.mockup.graphics.simpleIcon;strokeColor=#999999;rounded=0;labelBackgroundColor=none;fontFamily=Verdana;fontSize=14;fontColor=#000000;comic=1;" vertex="1" parent="1">
          <mxGeometry x="257.97" y="618" width="262.06" height="190" as="geometry" />
        </mxCell>
        <mxCell id="D6sIlu3n6dJU7XomKpgG-15" value="" style="verticalLabelPosition=bottom;shadow=0;dashed=0;align=center;html=1;verticalAlign=top;strokeWidth=1;shape=mxgraph.mockup.graphics.simpleIcon;strokeColor=#999999;rounded=0;labelBackgroundColor=none;fontFamily=Verdana;fontSize=14;fontColor=#000000;comic=1;" vertex="1" parent="1">
          <mxGeometry x="571.97" y="380" width="262.06" height="190" as="geometry" />
        </mxCell>
        <mxCell id="D6sIlu3n6dJU7XomKpgG-16" value="" style="verticalLabelPosition=bottom;shadow=0;dashed=0;align=center;html=1;verticalAlign=top;strokeWidth=1;shape=mxgraph.mockup.graphics.simpleIcon;strokeColor=#999999;rounded=0;labelBackgroundColor=none;fontFamily=Verdana;fontSize=14;fontColor=#000000;comic=1;" vertex="1" parent="1">
          <mxGeometry x="568.97" y="618" width="262.06" height="190" as="geometry" />
        </mxCell>
        <mxCell id="D6sIlu3n6dJU7XomKpgG-17" value="" style="verticalLabelPosition=bottom;shadow=0;dashed=0;align=center;html=1;verticalAlign=top;strokeWidth=1;shape=mxgraph.mockup.graphics.simpleIcon;strokeColor=#999999;rounded=0;labelBackgroundColor=none;fontFamily=Verdana;fontSize=14;fontColor=#000000;comic=1;" vertex="1" parent="1">
          <mxGeometry x="883.97" y="383" width="262.06" height="190" as="geometry" />
        </mxCell>
        <mxCell id="D6sIlu3n6dJU7XomKpgG-18" value="" style="verticalLabelPosition=bottom;shadow=0;dashed=0;align=center;html=1;verticalAlign=top;strokeWidth=1;shape=mxgraph.mockup.graphics.simpleIcon;strokeColor=#999999;rounded=0;labelBackgroundColor=none;fontFamily=Verdana;fontSize=14;fontColor=#000000;comic=1;" vertex="1" parent="1">
          <mxGeometry x="880.97" y="621" width="262.06" height="190" as="geometry" />
        </mxCell>
        <mxCell id="D6sIlu3n6dJU7XomKpgG-19" value="" style="verticalLabelPosition=bottom;shadow=0;dashed=0;align=center;html=1;verticalAlign=top;strokeWidth=1;shape=mxgraph.mockup.graphics.simpleIcon;strokeColor=#999999;rounded=0;labelBackgroundColor=none;fontFamily=Verdana;fontSize=14;fontColor=#000000;comic=1;" vertex="1" parent="1">
          <mxGeometry x="1199.97" y="383" width="262.06" height="190" as="geometry" />
        </mxCell>
        <mxCell id="D6sIlu3n6dJU7XomKpgG-20" value="" style="verticalLabelPosition=bottom;shadow=0;dashed=0;align=center;html=1;verticalAlign=top;strokeWidth=1;shape=mxgraph.mockup.graphics.simpleIcon;strokeColor=#999999;rounded=0;labelBackgroundColor=none;fontFamily=Verdana;fontSize=14;fontColor=#000000;comic=1;" vertex="1" parent="1">
          <mxGeometry x="1196.97" y="621" width="262.06" height="190" as="geometry" />
        </mxCell>
        <mxCell id="D6sIlu3n6dJU7XomKpgG-23" value="" style="group" vertex="1" connectable="0" parent="1">
          <mxGeometry x="768" y="852" width="184" height="20" as="geometry" />
        </mxCell>
        <mxCell id="D6sIlu3n6dJU7XomKpgG-9" value="" style="ellipse;whiteSpace=wrap;html=1;aspect=fixed;fillColor=#000000;" vertex="1" parent="D6sIlu3n6dJU7XomKpgG-23">
          <mxGeometry width="20" height="20" as="geometry" />
        </mxCell>
        <mxCell id="D6sIlu3n6dJU7XomKpgG-10" value="" style="ellipse;whiteSpace=wrap;html=1;aspect=fixed;fillColor=#FFFFFF;strokeColor=#000000;" vertex="1" parent="D6sIlu3n6dJU7XomKpgG-23">
          <mxGeometry x="42" width="20" height="20" as="geometry" />
        </mxCell>
        <mxCell id="D6sIlu3n6dJU7XomKpgG-11" value="" style="ellipse;whiteSpace=wrap;html=1;aspect=fixed;fillColor=#FFFFFF;strokeColor=#000000;" vertex="1" parent="D6sIlu3n6dJU7XomKpgG-23">
          <mxGeometry x="84" width="20" height="20" as="geometry" />
        </mxCell>
        <mxCell id="D6sIlu3n6dJU7XomKpgG-12" value="" style="ellipse;whiteSpace=wrap;html=1;aspect=fixed;fillColor=#FFFFFF;strokeColor=#000000;" vertex="1" parent="D6sIlu3n6dJU7XomKpgG-23">
          <mxGeometry x="124" width="20" height="20" as="geometry" />
        </mxCell>
        <mxCell id="D6sIlu3n6dJU7XomKpgG-13" value="" style="ellipse;whiteSpace=wrap;html=1;aspect=fixed;fillColor=#FFFFFF;strokeColor=#000000;" vertex="1" parent="D6sIlu3n6dJU7XomKpgG-23">
          <mxGeometry x="164" width="20" height="20" as="geometry" />
        </mxCell>
      </root>
    </mxGraphModel>
  </diagram>
</mxfile>
